<svg xmlns="http://www.w3.org/2000/svg" viewBox="0 0 20 20"><defs><style>.cls-1{fill:#6453ec;}.cls-2{fill:#fff;}</style></defs><title>facebook_icon</title><g id="Capa_2" data-name="Capa 2"><g id="Diseño"><rect class="cls-1" width="20" height="20" rx="2"/><path class="cls-2" d="M12.23,6.08h1.3v-2L12.9,4c-.39,0-.78,0-1.18,0a2.84,2.84,0,0,0-1.66.52,2.46,2.46,0,0,0-1,1.66A6.09,6.09,0,0,0,9,7c0,.45,0,.89,0,1.34v.17H7.09v2.22H9v5.58h2.31V10.77h1.89c.09-.74.19-1.47.29-2.24H11.28s0-1.1,0-1.57C11.31,6.3,11.7,6.1,12.23,6.08Z"/></g></g></svg>