<svg xmlns="http://www.w3.org/2000/svg" viewBox="0 0 20 20"><defs><style>.cls-1{fill:#6453ec;}.cls-2{fill:#fff;}</style></defs><title>instagram_icon</title><g id="Capa_2" data-name="Capa 2"><g id="Diseño"><rect class="cls-1" width="20" height="20" rx="2"/><path class="cls-2" d="M15.73,7.23a3,3,0,0,0-.9-1.9,3.15,3.15,0,0,0-2.05-.83,39.93,39.93,0,0,0-5.5.07A2.8,2.8,0,0,0,4.87,6.73,31.09,31.09,0,0,0,4.81,13a2.82,2.82,0,0,0,2.24,2.43,34.2,34.2,0,0,0,6.16,0,2.83,2.83,0,0,0,2.44-2.23A35.37,35.37,0,0,0,15.73,7.23Zm-1,5.57a1.89,1.89,0,0,1-1.77,1.68,33.25,33.25,0,0,1-5.74-.08A1.82,1.82,0,0,1,5.8,12.83a37.61,37.61,0,0,1,0-5.62A1.88,1.88,0,0,1,7.56,5.53a40.21,40.21,0,0,1,5.49,0,1.88,1.88,0,0,1,1.67,1.78A40,40,0,0,1,14.7,12.8ZM10.25,7.15A2.86,2.86,0,1,0,13.1,10,2.86,2.86,0,0,0,10.25,7.15Zm0,4.7A1.85,1.85,0,1,1,12.09,10,1.84,1.84,0,0,1,10.23,11.85ZM13.89,7a.68.68,0,0,1-.67.67A.67.67,0,1,1,13.89,7Z"/><path class="cls-2" d="M15.73,7.23a3,3,0,0,0-.9-1.9,3.15,3.15,0,0,0-2.05-.83,39.93,39.93,0,0,0-5.5.07A2.8,2.8,0,0,0,4.87,6.73,31.09,31.09,0,0,0,4.81,13a2.82,2.82,0,0,0,2.24,2.43,34.2,34.2,0,0,0,6.16,0,2.83,2.83,0,0,0,2.44-2.23A35.37,35.37,0,0,0,15.73,7.23Zm-1,5.57a1.89,1.89,0,0,1-1.77,1.68,33.25,33.25,0,0,1-5.74-.08A1.82,1.82,0,0,1,5.8,12.83a37.61,37.61,0,0,1,0-5.62A1.88,1.88,0,0,1,7.56,5.53a40.21,40.21,0,0,1,5.49,0,1.88,1.88,0,0,1,1.67,1.78A40,40,0,0,1,14.7,12.8ZM10.25,7.15A2.86,2.86,0,1,0,13.1,10,2.86,2.86,0,0,0,10.25,7.15Zm0,4.7A1.85,1.85,0,1,1,12.09,10,1.84,1.84,0,0,1,10.23,11.85ZM13.89,7a.68.68,0,0,1-.67.67A.67.67,0,1,1,13.89,7Z"/></g></g></svg>