<svg xmlns="http://www.w3.org/2000/svg" viewBox="0 0 20 20"><defs><style>.cls-1{fill:#6453ec;}.cls-2{fill:#fff;}</style></defs><title>twitter_icon</title><g id="Capa_2" data-name="Capa 2"><g id="Diseño"><rect class="cls-1" width="20" height="20" rx="2"/><path class="cls-2" d="M8.59,13.1a2.49,2.49,0,0,1-2.3-1.72,2.37,2.37,0,0,0,1.06,0h0A2.5,2.5,0,0,1,5.78,10.2a2.31,2.31,0,0,1-.36-1.31,2.52,2.52,0,0,0,1.1.3A2.48,2.48,0,0,1,5.77,5.9a7.06,7.06,0,0,0,5.09,2.58c0-.1,0-.18,0-.27a2.44,2.44,0,0,1,.36-1.62A2.48,2.48,0,0,1,15,6.17a.15.15,0,0,0,.14,0,5.32,5.32,0,0,0,1.43-.56h.05A2.49,2.49,0,0,1,15.58,7,4.7,4.7,0,0,0,17,6.61h0L16.69,7a5.16,5.16,0,0,1-.9.85.1.1,0,0,0,0,.08A6.7,6.7,0,0,1,15.7,9a7,7,0,0,1-.64,2.2,7,7,0,0,1-1.33,1.95,6.62,6.62,0,0,1-3.4,1.89A7,7,0,0,1,9,15.22a6.91,6.91,0,0,1-4-1.06l-.06,0a4.92,4.92,0,0,0,2.47-.35A4.82,4.82,0,0,0,8.59,13.1Z"/></g></g></svg>